<mxfile host="app.diagrams.net" modified="2021-12-16T01:46:13.677Z" agent="5.0 (Windows NT 10.0; Win64; x64) AppleWebKit/537.36 (KHTML, like Gecko) Chrome/96.0.4664.93 Safari/537.36" etag="quD8R0kIoN0xewSrH7ur" version="15.9.6" type="github">
  <diagram id="K5m0sB6r68iHKHiiGyy7" name="Page-1">
    <mxGraphModel dx="2272" dy="834" grid="1" gridSize="10" guides="1" tooltips="1" connect="1" arrows="1" fold="1" page="1" pageScale="1" pageWidth="850" pageHeight="1100" math="0" shadow="0">
      <root>
        <mxCell id="0" />
        <mxCell id="1" parent="0" />
        <mxCell id="ZiPStLOvgiAQaFrCtZSX-20" value="" style="rounded=0;whiteSpace=wrap;html=1;" vertex="1" parent="1">
          <mxGeometry x="-120" y="45" width="920" height="640" as="geometry" />
        </mxCell>
        <mxCell id="ZiPStLOvgiAQaFrCtZSX-3" value="" style="rounded=0;whiteSpace=wrap;html=1;" vertex="1" parent="1">
          <mxGeometry x="79" y="110" width="621" height="510" as="geometry" />
        </mxCell>
        <mxCell id="ZiPStLOvgiAQaFrCtZSX-4" style="edgeStyle=orthogonalEdgeStyle;rounded=0;orthogonalLoop=1;jettySize=auto;html=1;entryX=0;entryY=0.5;entryDx=0;entryDy=0;entryPerimeter=0;" edge="1" parent="1" source="ZiPStLOvgiAQaFrCtZSX-1" target="ZiPStLOvgiAQaFrCtZSX-2">
          <mxGeometry relative="1" as="geometry" />
        </mxCell>
        <mxCell id="ZiPStLOvgiAQaFrCtZSX-13" style="edgeStyle=orthogonalEdgeStyle;rounded=0;orthogonalLoop=1;jettySize=auto;html=1;entryX=0;entryY=0.5;entryDx=0;entryDy=0;entryPerimeter=0;exitX=0.5;exitY=1;exitDx=0;exitDy=0;exitPerimeter=0;" edge="1" parent="1" source="ZiPStLOvgiAQaFrCtZSX-1" target="ZiPStLOvgiAQaFrCtZSX-11">
          <mxGeometry relative="1" as="geometry" />
        </mxCell>
        <mxCell id="ZiPStLOvgiAQaFrCtZSX-1" value="" style="sketch=0;points=[[0,0,0],[0.25,0,0],[0.5,0,0],[0.75,0,0],[1,0,0],[0,1,0],[0.25,1,0],[0.5,1,0],[0.75,1,0],[1,1,0],[0,0.25,0],[0,0.5,0],[0,0.75,0],[1,0.25,0],[1,0.5,0],[1,0.75,0]];outlineConnect=0;fontColor=#232F3E;gradientColor=#945DF2;gradientDirection=north;fillColor=#5A30B5;strokeColor=#ffffff;dashed=0;verticalLabelPosition=bottom;verticalAlign=top;align=center;html=1;fontSize=12;fontStyle=0;aspect=fixed;shape=mxgraph.aws4.resourceIcon;resIcon=mxgraph.aws4.route_53;" vertex="1" parent="1">
          <mxGeometry x="100" y="140" width="78" height="78" as="geometry" />
        </mxCell>
        <mxCell id="ZiPStLOvgiAQaFrCtZSX-9" style="edgeStyle=orthogonalEdgeStyle;rounded=0;orthogonalLoop=1;jettySize=auto;html=1;" edge="1" parent="1" source="ZiPStLOvgiAQaFrCtZSX-2" target="ZiPStLOvgiAQaFrCtZSX-8">
          <mxGeometry relative="1" as="geometry" />
        </mxCell>
        <mxCell id="ZiPStLOvgiAQaFrCtZSX-2" value="" style="sketch=0;points=[[0,0,0],[0.25,0,0],[0.5,0,0],[0.75,0,0],[1,0,0],[0,1,0],[0.25,1,0],[0.5,1,0],[0.75,1,0],[1,1,0],[0,0.25,0],[0,0.5,0],[0,0.75,0],[1,0.25,0],[1,0.5,0],[1,0.75,0]];outlineConnect=0;fontColor=#232F3E;gradientColor=#F54749;gradientDirection=north;fillColor=#C7131F;strokeColor=#ffffff;dashed=0;verticalLabelPosition=bottom;verticalAlign=top;align=center;html=1;fontSize=12;fontStyle=0;aspect=fixed;shape=mxgraph.aws4.resourceIcon;resIcon=mxgraph.aws4.waf;" vertex="1" parent="1">
          <mxGeometry x="253" y="140" width="78" height="78" as="geometry" />
        </mxCell>
        <mxCell id="ZiPStLOvgiAQaFrCtZSX-7" value="" style="sketch=0;points=[[0,0,0],[0.25,0,0],[0.5,0,0],[0.75,0,0],[1,0,0],[0,1,0],[0.25,1,0],[0.5,1,0],[0.75,1,0],[1,1,0],[0,0.25,0],[0,0.5,0],[0,0.75,0],[1,0.25,0],[1,0.5,0],[1,0.75,0]];outlineConnect=0;fontColor=#232F3E;gradientColor=#60A337;gradientDirection=north;fillColor=#277116;strokeColor=#ffffff;dashed=0;verticalLabelPosition=bottom;verticalAlign=top;align=center;html=1;fontSize=12;fontStyle=0;aspect=fixed;shape=mxgraph.aws4.resourceIcon;resIcon=mxgraph.aws4.s3;" vertex="1" parent="1">
          <mxGeometry x="530" y="140" width="78" height="78" as="geometry" />
        </mxCell>
        <mxCell id="ZiPStLOvgiAQaFrCtZSX-10" style="edgeStyle=orthogonalEdgeStyle;rounded=0;orthogonalLoop=1;jettySize=auto;html=1;" edge="1" parent="1" source="ZiPStLOvgiAQaFrCtZSX-8" target="ZiPStLOvgiAQaFrCtZSX-7">
          <mxGeometry relative="1" as="geometry" />
        </mxCell>
        <mxCell id="ZiPStLOvgiAQaFrCtZSX-8" value="" style="sketch=0;points=[[0,0,0],[0.25,0,0],[0.5,0,0],[0.75,0,0],[1,0,0],[0,1,0],[0.25,1,0],[0.5,1,0],[0.75,1,0],[1,1,0],[0,0.25,0],[0,0.5,0],[0,0.75,0],[1,0.25,0],[1,0.5,0],[1,0.75,0]];outlineConnect=0;fontColor=#232F3E;gradientColor=#945DF2;gradientDirection=north;fillColor=#5A30B5;strokeColor=#ffffff;dashed=0;verticalLabelPosition=bottom;verticalAlign=top;align=center;html=1;fontSize=12;fontStyle=0;aspect=fixed;shape=mxgraph.aws4.resourceIcon;resIcon=mxgraph.aws4.cloudfront;" vertex="1" parent="1">
          <mxGeometry x="400" y="140" width="78" height="78" as="geometry" />
        </mxCell>
        <mxCell id="ZiPStLOvgiAQaFrCtZSX-15" style="edgeStyle=orthogonalEdgeStyle;rounded=0;orthogonalLoop=1;jettySize=auto;html=1;entryX=0;entryY=0.5;entryDx=0;entryDy=0;entryPerimeter=0;" edge="1" parent="1" source="ZiPStLOvgiAQaFrCtZSX-11" target="ZiPStLOvgiAQaFrCtZSX-14">
          <mxGeometry relative="1" as="geometry" />
        </mxCell>
        <mxCell id="ZiPStLOvgiAQaFrCtZSX-11" value="" style="sketch=0;points=[[0,0,0],[0.25,0,0],[0.5,0,0],[0.75,0,0],[1,0,0],[0,1,0],[0.25,1,0],[0.5,1,0],[0.75,1,0],[1,1,0],[0,0.25,0],[0,0.5,0],[0,0.75,0],[1,0.25,0],[1,0.5,0],[1,0.75,0]];outlineConnect=0;fontColor=#232F3E;gradientColor=#FF4F8B;gradientDirection=north;fillColor=#BC1356;strokeColor=#ffffff;dashed=0;verticalLabelPosition=bottom;verticalAlign=top;align=center;html=1;fontSize=12;fontStyle=0;aspect=fixed;shape=mxgraph.aws4.resourceIcon;resIcon=mxgraph.aws4.api_gateway;" vertex="1" parent="1">
          <mxGeometry x="250" y="326" width="78" height="78" as="geometry" />
        </mxCell>
        <mxCell id="ZiPStLOvgiAQaFrCtZSX-14" value="backend" style="sketch=0;points=[[0,0,0],[0.25,0,0],[0.5,0,0],[0.75,0,0],[1,0,0],[0,1,0],[0.25,1,0],[0.5,1,0],[0.75,1,0],[1,1,0],[0,0.25,0],[0,0.5,0],[0,0.75,0],[1,0.25,0],[1,0.5,0],[1,0.75,0]];outlineConnect=0;fontColor=#232F3E;gradientColor=#F78E04;gradientDirection=north;fillColor=#D05C17;strokeColor=#ffffff;dashed=0;verticalLabelPosition=bottom;verticalAlign=top;align=center;html=1;fontSize=12;fontStyle=0;aspect=fixed;shape=mxgraph.aws4.resourceIcon;resIcon=mxgraph.aws4.ecs;" vertex="1" parent="1">
          <mxGeometry x="410" y="326" width="78" height="78" as="geometry" />
        </mxCell>
        <mxCell id="ZiPStLOvgiAQaFrCtZSX-19" style="edgeStyle=orthogonalEdgeStyle;rounded=0;orthogonalLoop=1;jettySize=auto;html=1;entryX=-0.005;entryY=0.157;entryDx=0;entryDy=0;entryPerimeter=0;" edge="1" parent="1" source="ZiPStLOvgiAQaFrCtZSX-18" target="ZiPStLOvgiAQaFrCtZSX-3">
          <mxGeometry relative="1" as="geometry" />
        </mxCell>
        <mxCell id="ZiPStLOvgiAQaFrCtZSX-18" value="" style="verticalLabelPosition=bottom;shadow=0;dashed=0;align=center;html=1;verticalAlign=top;strokeWidth=1;shape=mxgraph.mockup.containers.userMale;strokeColor=#666666;strokeColor2=#008cff;" vertex="1" parent="1">
          <mxGeometry x="-80" y="140" width="100" height="100" as="geometry" />
        </mxCell>
        <mxCell id="ZiPStLOvgiAQaFrCtZSX-26" value="SPA" style="rounded=0;whiteSpace=wrap;html=1;" vertex="1" parent="1">
          <mxGeometry x="-120" y="45" width="100" height="35" as="geometry" />
        </mxCell>
        <mxCell id="ZiPStLOvgiAQaFrCtZSX-28" style="edgeStyle=orthogonalEdgeStyle;rounded=0;orthogonalLoop=1;jettySize=auto;html=1;" edge="1" parent="1" source="ZiPStLOvgiAQaFrCtZSX-27" target="ZiPStLOvgiAQaFrCtZSX-7">
          <mxGeometry relative="1" as="geometry" />
        </mxCell>
        <mxCell id="ZiPStLOvgiAQaFrCtZSX-27" value="" style="shape=image;html=1;verticalAlign=top;verticalLabelPosition=bottom;labelBackgroundColor=#ffffff;imageAspect=0;aspect=fixed;image=https://cdn1.iconfinder.com/data/icons/picons-social/57/github-128.png" vertex="1" parent="1">
          <mxGeometry x="890" y="115" width="128" height="128" as="geometry" />
        </mxCell>
        <mxCell id="ZiPStLOvgiAQaFrCtZSX-47" value="" style="rounded=0;whiteSpace=wrap;html=1;" vertex="1" parent="1">
          <mxGeometry x="-117" y="705" width="920" height="649" as="geometry" />
        </mxCell>
        <mxCell id="ZiPStLOvgiAQaFrCtZSX-48" value="" style="rounded=0;whiteSpace=wrap;html=1;" vertex="1" parent="1">
          <mxGeometry x="82" y="770" width="621" height="519" as="geometry" />
        </mxCell>
        <mxCell id="ZiPStLOvgiAQaFrCtZSX-50" style="edgeStyle=orthogonalEdgeStyle;rounded=0;orthogonalLoop=1;jettySize=auto;html=1;exitX=0.5;exitY=1;exitDx=0;exitDy=0;exitPerimeter=0;entryX=0;entryY=0.5;entryDx=0;entryDy=0;entryPerimeter=0;" edge="1" parent="1" source="ZiPStLOvgiAQaFrCtZSX-51" target="ZiPStLOvgiAQaFrCtZSX-59">
          <mxGeometry relative="1" as="geometry">
            <mxPoint x="253" y="1029.5" as="targetPoint" />
          </mxGeometry>
        </mxCell>
        <mxCell id="ZiPStLOvgiAQaFrCtZSX-51" value="" style="sketch=0;points=[[0,0,0],[0.25,0,0],[0.5,0,0],[0.75,0,0],[1,0,0],[0,1,0],[0.25,1,0],[0.5,1,0],[0.75,1,0],[1,1,0],[0,0.25,0],[0,0.5,0],[0,0.75,0],[1,0.25,0],[1,0.5,0],[1,0.75,0]];outlineConnect=0;fontColor=#232F3E;gradientColor=#945DF2;gradientDirection=north;fillColor=#5A30B5;strokeColor=#ffffff;dashed=0;verticalLabelPosition=bottom;verticalAlign=top;align=center;html=1;fontSize=12;fontStyle=0;aspect=fixed;shape=mxgraph.aws4.resourceIcon;resIcon=mxgraph.aws4.route_53;" vertex="1" parent="1">
          <mxGeometry x="100" y="810" width="78" height="87" as="geometry" />
        </mxCell>
        <mxCell id="ZiPStLOvgiAQaFrCtZSX-59" value="backend" style="sketch=0;points=[[0,0,0],[0.25,0,0],[0.5,0,0],[0.75,0,0],[1,0,0],[0,1,0],[0.25,1,0],[0.5,1,0],[0.75,1,0],[1,1,0],[0,0.25,0],[0,0.5,0],[0,0.75,0],[1,0.25,0],[1,0.5,0],[1,0.75,0]];outlineConnect=0;fontColor=#232F3E;gradientColor=#F78E04;gradientDirection=north;fillColor=#D05C17;strokeColor=#ffffff;dashed=0;verticalLabelPosition=bottom;verticalAlign=top;align=center;html=1;fontSize=12;fontStyle=0;aspect=fixed;shape=mxgraph.aws4.resourceIcon;resIcon=mxgraph.aws4.ecs;" vertex="1" parent="1">
          <mxGeometry x="270" y="930" width="78" height="87" as="geometry" />
        </mxCell>
        <mxCell id="ZiPStLOvgiAQaFrCtZSX-60" style="edgeStyle=orthogonalEdgeStyle;rounded=0;orthogonalLoop=1;jettySize=auto;html=1;entryX=-0.005;entryY=0.157;entryDx=0;entryDy=0;entryPerimeter=0;" edge="1" parent="1" source="ZiPStLOvgiAQaFrCtZSX-61" target="ZiPStLOvgiAQaFrCtZSX-48">
          <mxGeometry relative="1" as="geometry" />
        </mxCell>
        <mxCell id="ZiPStLOvgiAQaFrCtZSX-61" value="" style="verticalLabelPosition=bottom;shadow=0;dashed=0;align=center;html=1;verticalAlign=top;strokeWidth=1;shape=mxgraph.mockup.containers.userMale;strokeColor=#666666;strokeColor2=#008cff;" vertex="1" parent="1">
          <mxGeometry x="-80" y="797" width="100" height="109" as="geometry" />
        </mxCell>
        <mxCell id="ZiPStLOvgiAQaFrCtZSX-62" value="ECS/SSR base" style="rounded=0;whiteSpace=wrap;html=1;" vertex="1" parent="1">
          <mxGeometry x="-117" y="705" width="100" height="44" as="geometry" />
        </mxCell>
        <mxCell id="ZiPStLOvgiAQaFrCtZSX-65" style="edgeStyle=orthogonalEdgeStyle;rounded=0;orthogonalLoop=1;jettySize=auto;html=1;" edge="1" parent="1" source="ZiPStLOvgiAQaFrCtZSX-64" target="ZiPStLOvgiAQaFrCtZSX-59">
          <mxGeometry relative="1" as="geometry" />
        </mxCell>
        <mxCell id="ZiPStLOvgiAQaFrCtZSX-64" value="Front End Git" style="shape=image;html=1;verticalAlign=top;verticalLabelPosition=bottom;labelBackgroundColor=#ffffff;imageAspect=0;aspect=fixed;image=https://cdn1.iconfinder.com/data/icons/picons-social/57/github-128.png" vertex="1" parent="1">
          <mxGeometry x="840" y="909" width="128" height="128" as="geometry" />
        </mxCell>
      </root>
    </mxGraphModel>
  </diagram>
</mxfile>
